<?xml version="1.0" encoding="UTF-8" standalone="no"?>
<!-- Created with Inkscape (http://www.inkscape.org/) -->

<svg
   width="100mm"
   height="100mm"
   viewBox="0 0 100 100"
   version="1.1"
   id="svg80"
   inkscape:version="1.2.2 (b0a8486541, 2022-12-01)"
   sodipodi:docname="whitewolf.svg"
   xmlns:inkscape="http://www.inkscape.org/namespaces/inkscape"
   xmlns:sodipodi="http://sodipodi.sourceforge.net/DTD/sodipodi-0.dtd"
   xmlns="http://www.w3.org/2000/svg"
   xmlns:svg="http://www.w3.org/2000/svg">
  <sodipodi:namedview
     id="namedview82"
     pagecolor="#ffffff"
     bordercolor="#000000"
     borderopacity="0.25"
     inkscape:showpageshadow="2"
     inkscape:pageopacity="0.0"
     inkscape:pagecheckerboard="0"
     inkscape:deskcolor="#d1d1d1"
     inkscape:document-units="mm"
     showgrid="false"
     inkscape:zoom="1.28"
     inkscape:cx="-9.765625"
     inkscape:cy="215.625"
     inkscape:window-width="2560"
     inkscape:window-height="1403"
     inkscape:window-x="4480"
     inkscape:window-y="0"
     inkscape:window-maximized="1"
     inkscape:current-layer="layer9" />
  <defs
     id="defs77">
    <inkscape:path-effect
       effect="mirror_symmetry"
       start_point="50,47.6"
       end_point="50,55.948473"
       center_point="41.910695,51.773485"
       id="path-effect436"
       is_visible="true"
       lpeversion="1.2"
       lpesatellites=""
       mode="free"
       discard_orig_path="false"
       fuse_paths="true"
       oposite_fuse="false"
       split_items="false"
       split_open="false"
       link_styles="false" />
    <inkscape:path-effect
       effect="mirror_symmetry"
       start_point="50,8.44"
       end_point="50,45.834347"
       center_point="34.960269,27.134735"
       id="path-effect399"
       is_visible="true"
       lpeversion="1.2"
       lpesatellites=""
       mode="free"
       discard_orig_path="false"
       fuse_paths="false"
       oposite_fuse="false"
       split_items="false"
       split_open="false"
       link_styles="false" />
    <inkscape:path-effect
       effect="mirror_symmetry"
       start_point="50,47.600025"
       end_point="50,55.95"
       center_point="41.910695,51.773485"
       id="path-effect391"
       is_visible="true"
       lpeversion="1.2"
       lpesatellites=""
       mode="free"
       discard_orig_path="false"
       fuse_paths="true"
       oposite_fuse="false"
       split_items="false"
       split_open="false"
       link_styles="false" />
    <inkscape:path-effect
       effect="mirror_symmetry"
       start_point="50,5"
       end_point="50,95"
       center_point="40.076493,50"
       id="path-effect984"
       is_visible="true"
       lpeversion="1.2"
       lpesatellites=""
       mode="free"
       discard_orig_path="false"
       fuse_paths="false"
       oposite_fuse="false"
       split_items="false"
       split_open="false"
       link_styles="false" />
    <inkscape:path-effect
       effect="mirror_symmetry"
       start_point="50,5"
       end_point="50,95"
       center_point="44.618754,50"
       id="path-effect967"
       is_visible="true"
       lpeversion="1.2"
       lpesatellites=""
       mode="free"
       discard_orig_path="false"
       fuse_paths="false"
       oposite_fuse="false"
       split_items="false"
       split_open="false"
       link_styles="false" />
    <inkscape:path-effect
       effect="mirror_symmetry"
       start_point="50,5.61"
       end_point="50,90.018264"
       center_point="37.243553,47.81236"
       id="path-effect837"
       is_visible="true"
       lpeversion="1.2"
       lpesatellites=""
       mode="free"
       discard_orig_path="false"
       fuse_paths="false"
       oposite_fuse="false"
       split_items="false"
       split_open="false"
       link_styles="false" />
    <inkscape:path-effect
       effect="mirror_symmetry"
       start_point="50,36.47"
       end_point="50,44.063335"
       center_point="46.254409,40.264297"
       id="path-effect556"
       is_visible="true"
       lpeversion="1.2"
       lpesatellites=""
       mode="free"
       discard_orig_path="false"
       fuse_paths="true"
       oposite_fuse="false"
       split_items="false"
       split_open="false"
       link_styles="false" />
    <inkscape:path-effect
       effect="mirror_symmetry"
       start_point="50,2.45"
       end_point="50,89.347343"
       center_point="60.547382,45.900533"
       id="path-effect554"
       is_visible="true"
       lpeversion="1.2"
       lpesatellites=""
       mode="free"
       discard_orig_path="false"
       fuse_paths="true"
       oposite_fuse="false"
       split_items="false"
       split_open="false"
       link_styles="false" />
    <inkscape:path-effect
       effect="mirror_symmetry"
       start_point="50,36.47"
       end_point="50,44.063335"
       center_point="46.254409,40.264297"
       id="path-effect393"
       is_visible="true"
       lpeversion="1.2"
       lpesatellites=""
       mode="free"
       discard_orig_path="false"
       fuse_paths="false"
       oposite_fuse="false"
       split_items="false"
       split_open="false"
       link_styles="false" />
    <inkscape:path-effect
       effect="mirror_symmetry"
       start_point="50,2.21"
       end_point="50,98.45859"
       center_point="57.499849,50.333879"
       id="path-effect389"
       is_visible="true"
       lpeversion="1.2"
       lpesatellites=""
       mode="free"
       discard_orig_path="false"
       fuse_paths="true"
       oposite_fuse="false"
       split_items="false"
       split_open="false"
       link_styles="false" />
    <inkscape:path-effect
       effect="mirror_symmetry"
       start_point="50,4.7"
       end_point="50,96.448376"
       center_point="52.076925,50.57469"
       id="path-effect860"
       is_visible="true"
       lpeversion="1.2"
       lpesatellites=""
       mode="free"
       discard_orig_path="false"
       fuse_paths="false"
       oposite_fuse="false"
       split_items="true"
       split_open="false"
       link_styles="false" />
    <inkscape:path-effect
       effect="mirror_symmetry"
       start_point="50,36.27"
       end_point="50,43.055322"
       center_point="44.214539,39.664329"
       id="path-effect850"
       is_visible="true"
       lpeversion="1.2"
       lpesatellites=""
       mode="free"
       discard_orig_path="false"
       fuse_paths="false"
       oposite_fuse="false"
       split_items="false"
       split_open="false"
       link_styles="false" />
    <inkscape:path-effect
       effect="mirror_symmetry"
       start_point="50,-25"
       end_point="50,33.634785"
       center_point="36.529416,4.3173923"
       id="path-effect789"
       is_visible="true"
       lpeversion="1.2"
       lpesatellites=""
       mode="free"
       discard_orig_path="false"
       fuse_paths="false"
       oposite_fuse="false"
       split_items="false"
       split_open="false"
       link_styles="false" />
    <inkscape:path-effect
       effect="mirror_symmetry"
       start_point="50,4.7"
       end_point="50,96.448575"
       center_point="52.076863,50.574844"
       id="path-effect782"
       is_visible="true"
       lpeversion="1.2"
       lpesatellites=""
       mode="free"
       discard_orig_path="false"
       fuse_paths="false"
       oposite_fuse="false"
       split_items="false"
       split_open="false"
       link_styles="false" />
    <inkscape:path-effect
       effect="mirror_symmetry"
       start_point="50,4.26"
       end_point="50,96.681463"
       center_point="54.168391,50.471968"
       id="path-effect611"
       is_visible="true"
       lpeversion="1.2"
       lpesatellites=""
       mode="free"
       discard_orig_path="false"
       fuse_paths="false"
       oposite_fuse="false"
       split_items="false"
       split_open="false"
       link_styles="false" />
    <inkscape:path-effect
       effect="mirror_symmetry"
       start_point="50,91.01"
       end_point="50,8.4107925"
       center_point="26.705824,49.712647"
       id="path-effect410"
       is_visible="true"
       lpeversion="1.2"
       lpesatellites=""
       mode="free"
       discard_orig_path="false"
       fuse_paths="true"
       oposite_fuse="false"
       split_items="false"
       split_open="false"
       link_styles="false" />
  </defs>
  <g
     inkscape:label="Layer 1"
     inkscape:groupmode="layer"
     id="layer1"
     style="display:none">
    <path
       id="path356"
       style="fill:#000000;stroke-width:0.264583"
       d="m 50.000049,2.5001058 a 7.5,8.1177931 0 0 0 -7.499801,8.1178512 7.5,8.1177931 0 0 0 7.499801,8.11785 7.5,8.1177931 0 0 0 7.4998,-8.11785 7.5,8.1177931 0 0 0 -7.4998,-8.1178512 z M 75.849634,8.4108561 C 74.742967,8.4069195 73.667703,9.0799484 72.646729,10.51357 67.942111,17.119651 53.768332,21.749882 50.000049,22.886975 46.231766,21.749882 32.057986,17.119651 27.353369,10.51357 26.672719,9.5578222 25.968307,8.9391198 25.246004,8.6346151 20.189886,6.5030823 14.287126,19.724029 9.9626994,39.824443 5.0204968,62.796346 2.4825358,91.013566 2.4825358,91.013566 c 0,0 2.7216402,-12.964997 10.0996422,-26.769425 7.378002,-13.804431 11.691275,6.300907 11.691276,6.300907 0,0 2.133815,-14.246257 8.281148,-13.066386 5.957535,1.143444 16.782693,20.994195 17.445447,22.218799 0.662753,-1.224604 11.487912,-21.075355 17.445447,-22.218799 6.147333,-1.179871 8.281148,13.066386 8.281148,13.066386 0,0 4.313273,-20.105338 11.691276,-6.300907 7.378002,13.804428 10.099642,26.769425 10.099642,26.769425 0,0 -2.538477,-28.21722 -7.48068,-51.189123 C 86.021342,21.159773 80.645188,8.4279148 75.849634,8.4108561 Z" />
  </g>
  <g
     inkscape:groupmode="layer"
     id="layer6"
     inkscape:label="vampire 2"
     style="display:none">
    <path
       style="display:none;fill:#008000;stroke-width:0.264583"
       d="m 51.071369,22.820661 c 0,0 -19.700536,0.631356 -29.873335,-4.025695 C 11.025237,14.137915 14.624569,7.6663988 9.9096702,10.43041 5.1947709,13.194421 3.1763964,56.438955 3.1763964,56.438955 c 0,0 3.2853566,-10.193557 8.3500306,-18.085503 5.064674,-7.891947 7.236417,-7.920313 7.236417,-7.920313 0,0 -0.868574,2.32237 -1.541152,5.739366 -0.672578,3.416993 0.03524,6.85918 0.03524,6.85918 0,0 9.140773,-8.626338 12.269791,-9.950964 3.12902,-1.324623 21.591066,-1.323871 21.591066,-1.323871 z"
       id="path662" />
    <path
       style="display:none;fill:#ff0000;stroke-width:0.264583"
       d="m 7.4004164,60.186209 c 0,0 -5.4170527,-8.61405 -4.2216221,-25.166121 C 4.3742252,18.468017 9.655141,5.4211293 13.379409,5.6082181 17.103677,5.7953068 23.158994,6.1490325 19.517913,19.148167 15.876833,32.147301 9.4156047,40.187729 8.3679243,47.200195 7.3202437,54.212664 7.4004164,60.186209 7.4004164,60.186209 Z"
       id="path822" />
    <path
       style="display:none;fill:#ff0000;stroke-width:0.264583"
       d="m 21.805673,49.732699 c 0,0 -2.443458,-12.091394 -0.468145,-19.549281 1.975314,-7.457889 4.104795,-19.338373 10.077427,-20.6479938 5.972633,-1.3096205 6.890467,5.7938678 4.83852,10.1224978 -2.051944,4.328629 -6.749317,8.471654 -8.592444,12.848812 -1.843126,4.377161 -5.855358,17.225965 -5.855358,17.225965 z"
       id="path826" />
    <path
       style="display:none;fill:#ff0000;stroke-width:0.264583"
       d="m 17.64142,60.277835 c 0,0 -3.71728,12.277259 -2.082298,18.86405 1.634982,6.586792 5.571643,10.953001 9.368604,10.875328 3.796962,-0.07767 6.588641,-5.574155 3.726278,-9.602772 C 25.791641,76.385821 20.63517,73.204196 19.428857,68.068734 18.222543,62.933275 17.64142,60.277835 17.64142,60.277835 Z"
       id="path828" />
    <path
       id="path830"
       style="fill:#000000;stroke-width:0.264583"
       d="M 13.379545,5.6084432 C 9.6552808,5.4213546 4.3740471,18.46803 3.1786174,35.020085 1.9831879,51.572139 7.4005819,60.18599 7.4005819,60.18599 c 0,0 -0.080297,-5.973308 0.9673828,-12.98577 C 9.415644,40.187761 15.876595,32.147306 19.517672,19.148185 23.158749,6.1490637 17.103809,5.7955317 13.379545,5.6084432 Z m 19.343522,3.7687622 c -0.405901,0.00495 -0.841319,0.055816 -1.30793,0.1581299 -5.972626,1.3096197 -8.102109,13.1899537 -10.077421,20.6478357 -1.975311,7.457879 0.468188,19.549711 0.468188,19.549711 0,0 4.011816,-12.849182 5.85494,-17.226339 1.843125,-4.377154 6.540815,-8.520203 8.592757,-12.848828 C 38.145238,15.667263 37.512707,9.3187971 32.723067,9.3772054 Z M 17.6413,60.277974 c 0,0 -3.717023,12.277181 -2.082043,18.863965 1.63498,6.586786 5.571463,10.952978 9.36842,10.875305 3.796959,-0.07767 6.588748,-5.574418 3.726388,-9.603031 C 25.791705,76.385597 20.6351,73.20417 19.428788,68.068713 18.222475,62.93326 17.6413,60.277974 17.6413,60.277974 Z M 61.107561,5.6084432 C 64.831825,5.4213546 70.113059,18.46803 71.308489,35.020085 72.503918,51.572139 67.086524,60.18599 67.086524,60.18599 c 0,0 0.0803,-5.973308 -0.967383,-12.98577 C 65.071462,40.187761 58.610511,32.147306 54.969434,19.148185 51.328357,6.1490637 57.383297,5.7955317 61.107561,5.6084432 Z M 41.764039,9.3772054 c 0.405901,0.00495 0.841319,0.055816 1.30793,0.1581299 5.972626,1.3096197 8.102109,13.1899537 10.077421,20.6478357 1.975311,7.457879 -0.468188,19.549711 -0.468188,19.549711 0,0 -4.011816,-12.849182 -5.85494,-17.226339 C 44.983137,28.129389 40.285447,23.98634 38.233505,19.657715 36.341868,15.667263 36.974399,9.3187971 41.764039,9.3772054 Z M 56.845806,60.277974 c 0,0 3.717023,12.277181 2.082043,18.863965 -1.63498,6.586786 -5.571463,10.952978 -9.36842,10.875305 -3.796959,-0.07767 -6.588748,-5.574418 -3.726388,-9.603031 2.86236,-4.028616 8.018965,-7.210043 9.225277,-12.3455 1.206313,-5.135453 1.787488,-7.790739 1.787488,-7.790739 z"
       inkscape:path-effect="#path-effect837"
       inkscape:original-d="M 13.379545,5.6084432 C 9.6552808,5.4213546 4.3740471,18.46803 3.1786174,35.020085 1.9831879,51.572139 7.4005819,60.18599 7.4005819,60.18599 c 0,0 -0.080297,-5.973308 0.9673828,-12.98577 C 9.415644,40.187761 15.876595,32.147306 19.517672,19.148185 23.158749,6.1490637 17.103809,5.7955317 13.379545,5.6084432 Z m 19.343522,3.7687622 c -0.405901,0.00495 -0.841319,0.055816 -1.30793,0.1581299 -5.972626,1.3096197 -8.102109,13.1899537 -10.077421,20.6478357 -1.975311,7.457879 0.468188,19.549711 0.468188,19.549711 0,0 4.011816,-12.849182 5.85494,-17.226339 1.843125,-4.377154 6.540815,-8.520203 8.592757,-12.848828 C 38.145238,15.667263 37.512707,9.3187971 32.723067,9.3772054 Z M 17.6413,60.277974 c 0,0 -3.717023,12.277181 -2.082043,18.863965 1.63498,6.586786 5.571463,10.952978 9.36842,10.875305 3.796959,-0.07767 6.588748,-5.574418 3.726388,-9.603031 C 25.791705,76.385597 20.6351,73.20417 19.428788,68.068713 18.222475,62.93326 17.6413,60.277974 17.6413,60.277974 Z"
       class="UnoptimicedTransforms" />
  </g>
  <g
     inkscape:groupmode="layer"
     id="layer7"
     inkscape:label="vampire 3"
     style="display:none">
    <rect
       style="display:none;fill:#000000;stroke-width:0.288632"
       id="rect892"
       width="32.34"
       height="20"
       x="33.830002"
       y="5" />
    <rect
       style="display:none;fill:#000000;stroke-width:0.330294"
       id="rect894"
       width="28.24"
       height="85"
       x="35.880001"
       y="10" />
    <path
       style="display:none;fill:#000000;stroke-width:0.239666"
       d="M 33.825077,5 19.314,31.562634 35.876767,95 36.454931,94.117933 40.076493,10.118994 Z"
       id="path950" />
    <rect
       style="display:none;fill:#ffffff;stroke-width:0.320234"
       id="rect952"
       width="10"
       height="45"
       x="45"
       y="15" />
    <rect
       style="display:none;fill:#ffffff;stroke-width:0.300269"
       id="rect954"
       width="30"
       height="10"
       x="35"
       y="25" />
    <path
       id="rect974"
       style="display:inline;fill:#000000;stroke-width:0.288632"
       d="M 33.825326,5.0002116 19.314067,31.562415 35.87688,94.999886 l 0.0031,-0.0047 v 0.0047 h 28.240137 v -0.0047 l 0.0031,0.0047 16.562813,-63.437471 -14.511259,-26.5622034 -0.0047,0.00362 v -0.00362 H 33.829976 v 0.00362 z M 44.999837,17.999935 h 9.999907 v 9.999906 h 10.000423 v 9.999907 H 54.999744 V 62.999772 H 44.999837 V 37.999748 h -9.999906 v -9.999907 h 9.999906 z" />
  </g>
  <g
     inkscape:groupmode="layer"
     id="layer2"
     inkscape:label="werewolf"
     style="display:none">
    <rect
       style="fill:#000000;stroke-width:0.243636"
       id="rect603"
       width="30"
       height="14.333952"
       x="35"
       y="19.265261" />
    <path
       style="display:none;fill:#ff0000;stroke-width:0.264583"
       d="M 41.539747,22.023044 35.054283,4.2624724 c 0,0 -8.02137,22.3224716 -12.884031,27.9559986 C 17.307589,37.851998 4.7731206,45.832125 4.7731206,45.832125 l 14.8757864,7.913044 -8.791222,5.389507 c 0,0 8.376811,1.359008 15.255757,14.752854 6.878946,13.393846 8.54073,22.793933 8.54073,22.793933 l 6.965886,-12.18212 12.548333,0.393933 -1.131644,-42.272399 z"
       id="path607" />
    <path
       style="display:none;fill:#000000;stroke-width:0.264583"
       d="M 41.539747,22.023044 35.054283,4.2624724 c 0,0 -8.02137,22.3224716 -12.884031,27.9559986 C 17.307589,37.851998 4.7731206,45.832125 4.7731206,45.832125 l 14.8757864,7.913044 -8.791222,5.389507 c 0,0 8.376811,1.359008 15.255757,14.752854 6.878946,13.393846 8.54073,22.793933 8.54073,22.793933 l 6.965886,-12.18212 12.548333,0.393933 -1.131644,-42.272399 z m 25.257288,0 6.485464,-17.7605716 c 0,0 8.02137,22.3224716 12.884031,27.9559986 4.862663,5.633527 17.39713,13.613654 17.39713,13.613654 l -14.875785,7.913044 8.791222,5.389507 c 0,0 -8.376811,1.359008 -15.255757,14.752854 -6.878946,13.393846 -8.54073,22.793933 -8.54073,22.793933 l -6.965886,-12.18212 -12.548333,0.393933 1.131644,-42.272399 z"
       id="path609"
       inkscape:path-effect="#path-effect611"
       inkscape:original-d="M 41.539747,22.023044 35.054283,4.2624724 c 0,0 -8.02137,22.3224716 -12.884031,27.9559986 C 17.307589,37.851998 4.7731206,45.832125 4.7731206,45.832125 l 14.8757864,7.913044 -8.791222,5.389507 c 0,0 8.376811,1.359008 15.255757,14.752854 6.878946,13.393846 8.54073,22.793933 8.54073,22.793933 l 6.965886,-12.18212 12.548333,0.393933 -1.131644,-42.272399 z"
       class="UnoptimicedTransforms" />
    <rect
       style="fill:#000000;stroke-width:0.263586"
       id="rect669"
       width="15"
       height="38.769417"
       x="42.5"
       y="47.156761" />
    <g
       inkscape:groupmode="layer"
       id="layer4"
       inkscape:label="werewolf 1">
      <path
         style="display:none;fill:#008000;stroke-width:0.264583"
         d="M 44.719131,21.960615 36.532161,4.7011129 c 0,0 -7.537368,12.0547821 -17.523477,19.3997481 C 9.0225762,31.445827 2.3120655,33.226152 2.3120655,33.226152 L 21.921592,40.975941 8.5910046,45.733485 c 0,0 12.8893204,-2.909295 22.4325634,13.816954 9.54324,16.72625 10.086067,36.898136 10.086067,36.898136 L 51.796984,60.347968 52.076863,27.834817 Z"
         id="path667" />
      <ellipse
         style="display:none;fill:#ffffff;stroke-width:0.319139"
         id="path671"
         cx="5.7647085"
         cy="4.3173923"
         rx="30.764708"
         ry="29.317392" />
      <path
         style="display:none;fill:#ffffff;stroke-width:0.264583"
         d="M 44.214539,42.76985 33.80124,36.273337 c 0,0 -1.985296,3.481946 1.126231,5.530125 3.111526,2.04818 9.287068,0.966388 9.287068,0.966388 z"
         id="path791" />
      <path
         id="path852"
         style="display:inline;fill:#000000;stroke-width:0.264583"
         d="m 36.532137,4.701005 c 0,0 -0.01982,0.030681 -0.02067,0.032039 A 30.764708,29.317392 0 0 1 5.764506,33.634639 30.764708,29.317392 0 0 1 3.0359904,33.512683 l 18.8856686,7.46311 -13.3304521,4.75785 c 0,0 12.8890091,-2.909471 22.4322221,13.816727 9.543213,16.726202 10.086206,36.898006 10.086206,36.898006 l 8.890414,-30.031241 8.890413,30.031241 c 0,0 0.542994,-20.171804 10.086206,-36.898006 9.543214,-16.726198 22.432223,-13.816727 22.432223,-13.816727 l -13.330453,-4.75785 18.885669,-7.46311 A 30.764708,29.317392 0 0 1 94.235592,33.634639 30.764708,29.317392 0 0 1 63.488631,4.7330444 c -8.5e-4,-0.00136 -0.02067,-0.032039 -0.02067,-0.032039 l -8.187098,17.2594116 -5.280814,4.21628 -5.280815,-4.21628 z m -2.731099,31.572233 10.413317,6.496761 c 0,0 -6.175251,1.081827 -9.286771,-0.966349 -3.111521,-2.048175 -1.126546,-5.530412 -1.126546,-5.530412 z m 32.398022,0 c 0,0 1.984975,3.482237 -1.126546,5.530412 -3.11152,2.048176 -9.286772,0.966349 -9.286772,0.966349 z" />
    </g>
  </g>
  <g
     inkscape:groupmode="layer"
     id="layer5"
     inkscape:label="werewolf2"
     style="display:none">
    <path
       style="display:none;fill:#ff0000;stroke-width:0.264583"
       d="M 53.014337,22.380657 43.768584,21.473052 36.131105,2.2091156 25.768346,31.204376 1.6812125,35.16295 l 21.8064755,9.899467 -13.337414,3.533299 20.362833,10.225532 7.547956,39.637215 6.34713,-13.994087 8.528015,-4.081193 z"
       id="path185" />
    <rect
       style="display:none;fill:#ff0000;stroke-width:0.860166"
       id="rect293"
       width="15"
       height="67.5"
       x="42.5"
       y="19" />
    <path
       style="display:none;fill:#ffffff;stroke-width:0.264583"
       d="M 46.222996,42.812353 33.126722,36.465258 c 0,0 -2.313456,8.188862 5.853126,7.564059 8.166581,-0.624803 7.243148,-1.216964 7.243148,-1.216964 z"
       id="path325" />
    <path
       id="path381"
       style="display:none;fill:#000000;stroke-width:0.264583"
       d="M 36.130611,2.2091675 25.767419,31.20533 1.6815511,35.162195 23.488489,45.062366 10.150285,48.595483 30.5139,58.820182 l 7.546826,39.638924 5.423441,-11.95896 h 6.515882 6.515364 L 61.939372,98.459106 69.486198,58.820182 89.849813,48.595483 76.511609,45.062366 98.318547,35.162195 74.232678,31.20533 63.86897,2.2091675 57.210978,18.999874 h -7.210929 -7.21093 z m -3.003951,34.2563065 13.096358,6.3469 c 0,0 0.01447,0.0095 0.02377,0.02687 0.0046,0.0087 0.0081,0.01939 0.0078,0.03204 -3.56e-4,0.01265 -0.0047,0.02709 -0.01499,0.04341 -0.01025,0.01632 -0.02664,0.03454 -0.05168,0.05426 -0.02504,0.01972 -0.05863,0.04072 -0.103352,0.06356 -0.04472,0.02284 -0.100215,0.04717 -0.169499,0.07286 -0.138618,0.05143 -0.331373,0.108277 -0.597896,0.169499 -0.399232,0.09169 -0.964011,0.193261 -1.7601,0.300757 -0.530917,0.07169 -1.164502,0.146221 -1.920813,0.222208 -2e-4,2.1e-5 -3.16e-4,-2e-5 -5.17e-4,0 -0.756204,0.07597 -1.635044,0.153427 -2.655651,0.231511 -0.255206,0.01953 -0.500229,0.03024 -0.735356,0.03307 -0.235127,0.0028 -0.460614,-0.0022 -0.676444,-0.01499 -0.214901,-0.01277 -0.419958,-0.03319 -0.6165,-0.06046 -8.32e-4,-1.15e-4 -0.0018,-4.01e-4 -0.0026,-5.17e-4 -1.72e-4,-2.3e-5 -3.45e-4,2.4e-5 -5.17e-4,0 -0.0013,-1.74e-4 -0.0024,-3.41e-4 -0.0036,-5.16e-4 -0.195785,-0.02735 -0.382904,-0.06158 -0.561206,-0.10232 -0.179579,-0.04103 -0.350523,-0.08854 -0.513147,-0.14211 -0.162624,-0.05357 -0.317088,-0.113205 -0.463538,-0.178284 -0.14645,-0.06508 -0.284938,-0.135809 -0.415995,-0.211356 -0.131058,-0.07555 -0.254592,-0.155834 -0.371037,-0.240812 -0.113284,-0.08267 -0.219176,-0.169821 -0.31936,-0.26045 -0.0028,-0.0025 -0.006,-0.0047 -0.0088,-0.0072 -9.3e-5,-8.4e-5 -4.25e-4,8.4e-5 -5.17e-4,0 -0.0033,-0.003 -0.006,-0.0063 -0.0093,-0.0093 -0.09884,-0.09057 -0.1919,-0.184719 -0.278536,-0.282153 -0.08956,-0.100727 -0.17282,-0.205082 -0.250114,-0.312126 -0.07729,-0.107044 -0.148652,-0.216855 -0.214457,-0.329179 -0.06267,-0.106969 -0.11966,-0.216273 -0.172599,-0.327112 -0.0058,-0.01204 -0.01141,-0.02409 -0.01705,-0.03617 -0.05149,-0.110269 -0.09894,-0.221763 -0.141594,-0.334863 -5.7e-5,-1.53e-4 5.7e-5,-3.65e-4 0,-5.17e-4 -0.0451,-0.119623 -0.08546,-0.240469 -0.121439,-0.362252 -4.8e-5,-1.59e-4 4.7e-5,-3.57e-4 0,-5.17e-4 -0.03597,-0.12178 -0.06798,-0.244513 -0.0956,-0.367419 -0.02766,-0.123067 -0.05124,-0.246329 -0.07131,-0.369487 -2.8e-5,-1.69e-4 2.7e-5,-3.47e-4 0,-5.16e-4 -0.02007,-0.123161 -0.03634,-0.245722 -0.04961,-0.367937 -0.02654,-0.244423 -0.04043,-0.485958 -0.04444,-0.720369 -0.004,-0.234411 0.0017,-0.461898 0.01395,-0.677995 0.01228,-0.216097 0.03143,-0.420817 0.05374,-0.610299 0.02231,-0.189481 0.04779,-0.36375 0.0739,-0.518314 0.02608,-0.154375 0.05285,-0.289225 0.07648,-0.400493 4.5e-5,-2.11e-4 -4.5e-5,-3.05e-4 0,-5.16e-4 0.002,-0.0095 0.0016,-0.0058 0.0036,-0.01499 0.04521,-0.210479 0.07958,-0.33538 0.07958,-0.33538 z m 33.746777,0 c 0,0 2.313185,8.188682 -5.853389,7.56388 -8.166573,-0.624803 -7.242969,-1.21698 -7.242969,-1.21698 z" />
    <path
       style="display:none;fill:#808000;stroke-width:0.264583"
       d="M 54.364193,20.903445 43.650598,20.487428 36.072029,2.4537238 c 0,0 -5.015949,25.5603932 -22.475083,27.7701882 C -3.8621887,32.433709 1.54464,31.649619 1.54464,31.649619 l 23.79738,8.715497 -19.6027559,4.907542 c 0,0 17.6907729,-0.79996 24.8849729,21.719463 7.194201,22.519423 6.058488,22.355188 6.058488,22.355188 l 6.122484,-16.772104 17.742173,-1.275789 z"
       id="path450" />
    <path
       style="display:none;fill:#808000;stroke-width:0.264583"
       d="m 52.904051,79.990449 c -0.775547,0 -7.160083,-1.113525 -7.160083,-1.113525 0,0 -4.829217,12.088156 -5.055915,13.835784 -0.226695,1.747629 0.942536,4.969248 2.376159,5.374563 1.433627,0.405313 10.120884,-2.018633 10.120884,-2.018633 z"
       id="path454" />
    <rect
       style="display:none;fill:#808000;stroke-width:0.264583"
       id="rect508"
       width="16.881941"
       height="10.612559"
       x="41.771336"
       y="18.847725" />
    <rect
       style="display:none;fill:#808000;stroke-width:0.264583"
       id="rect510"
       width="20.007988"
       height="11.319828"
       x="41.421711"
       y="61.64323" />
    <rect
       style="display:none;fill:#808000;stroke-width:0.264851"
       id="rect512"
       width="8.5"
       height="2.7593651"
       x="45.75"
       y="78.876488" />
    <rect
       style="display:none;fill:#808000;stroke-width:0.264044"
       id="rect514"
       width="13.5"
       height="3.9237189"
       x="43.225418"
       y="94.19252" />
    <path
       style="display:none;fill:#ffffff;stroke-width:0.264583"
       d="M 46.222996,42.812353 33.126722,36.465258 c 0,0 -2.313456,8.188862 5.853126,7.564059 8.166581,-0.624803 7.243148,-1.216964 7.243148,-1.216964 z"
       id="path544" />
    <path
       id="path546"
       style="display:inline;fill:#000000;stroke-width:0.264583"
       d="m 36.072217,2.4530802 c 0,0 -5.015517,25.5616428 -22.474597,27.7714318 -7.8957898,0.999367 -10.7806297,1.343433 -11.9382898,1.46761 L 25.341606,40.364978 5.7402181,45.273206 c 0,0 17.6906069,-0.800268 24.8847859,21.719087 5.782591,18.100776 6.18223,21.539729 6.116939,22.195028 l 5.921603,-16.224333 h 14.673006 l 5.921602,16.224333 c -0.06529,-0.655299 0.334347,-4.094252 6.11694,-22.195028 C 76.56927,44.472938 94.25988,45.273206 94.25988,45.273206 L 74.657975,40.364978 98.340767,31.692122 C 97.183109,31.567945 94.298267,31.223879 86.402478,30.224512 68.943395,28.014723 63.927881,2.4530802 63.927881,2.4530802 L 57.038896,18.847945 H 42.961202 Z m 62.26855,29.2390418 c 1.402146,0.150406 0.114205,-0.04186 0.114205,-0.04186 z M 63.258154,89.187321 c 0.01594,0.159966 0.0584,0.160197 0.0584,0.160197 z m -26.516211,0 -0.05839,0.160197 c 0,0 0.04246,-2.31e-4 0.05839,-0.160197 z M 1.6593302,31.692122 1.5451253,31.650264 c 0,0 -1.28794008,0.192264 0.1142049,0.04186 z m 31.4673298,4.773352 13.096358,6.3469 c 0,0 0.923604,0.592177 -7.242968,1.21698 -8.166574,0.624802 -5.85339,-7.56388 -5.85339,-7.56388 z m 33.746777,0 c 0,0 2.313185,8.188682 -5.853389,7.56388 -8.166573,-0.624803 -7.242969,-1.21698 -7.242969,-1.21698 z" />
  </g>
  <g
     inkscape:groupmode="layer"
     id="layer8"
     inkscape:label="fae"
     style="display:none">
    <path
       style="display:none;fill:#808000;stroke-width:0.264583"
       d="m 37.16295,41.885155 c 0,0 -3.544866,-12.027504 -2.978483,-19.955186 0.56638,-7.927681 1.565029,-13.5777879 5.829495,-17.0230236 4.26447,-3.445235 12.678032,-4.72759389 19.146499,-4.59690099 6.468467,0.130693 18.480791,3.18483499 19.741568,10.97841459 1.260776,7.793582 -38.601496,34.159051 -38.601496,34.159051 z"
       id="path1049" />
    <path
       style="display:none;fill:#808000;stroke-width:0.264583"
       d="m 45.590238,51.474193 c 0,0 16.653222,-13.554461 22.308585,-16.585001 5.655365,-3.03054 14.33786,-6.467274 16.520318,-5.551422 2.182458,0.91585 7.493259,10.990414 5.847043,21.910564 -1.646216,10.920151 -41.235008,4.739989 -41.235008,4.739989 z"
       id="path1051" />
    <path
       style="display:none;fill:#808000;stroke-width:0.264583"
       d="M 69.276218,92.160815 C 52.668989,66.105826 33.097275,45.460267 28.898403,42.217418 c -4.198872,-3.242849 -8.512247,-2.027315 -10.169486,0.230444 -1.657239,2.257761 -3.552424,7.477321 17.797888,29.658024 21.350311,22.180703 30.999562,28.964544 32.060356,27.436214 1.060796,-1.528331 1.35863,-3.501837 0.689057,-7.381285 z"
       id="path1053" />
    <ellipse
       style="display:none;fill:#808000;stroke-width:0.264583"
       id="path1107"
       cx="13.369658"
       cy="33.015156"
       rx="6.491147"
       ry="7.1296883" />
    <path
       id="path1116"
       style="fill:#000000;stroke-width:0.264583"
       d="M 57.92618,0.30230713 C 51.656375,0.34812043 44.012032,1.6772894 40.014095,4.907194 c -4.264462,3.4452323 -5.263239,9.09506 -5.829618,17.022734 -0.566383,7.927674 2.978629,19.955371 2.978629,19.955371 l 3.137276,3.562056 c 0,0 39.862553,-26.365064 38.601779,-34.158638 C 77.641385,3.4951448 65.628674,0.44075146 59.160213,0.31005859 58.755934,0.3018903 58.344167,0.29925291 57.92618,0.30230713 Z M 13.369727,25.885242 a 6.491147,7.1296883 0 0 0 -6.4910771,7.129797 6.491147,7.1296883 0 0 0 6.4910771,7.129797 6.491147,7.1296883 0 0 0 6.491076,-7.129797 6.491147,7.1296883 0 0 0 -6.491076,-7.129797 z m 69.945084,3.303674 c -3.201276,0.0857 -10.467674,3.048707 -15.416113,5.700427 -5.655357,3.030537 -22.308716,16.585034 -22.308716,16.585034 l 3.441134,4.513937 c 0,0 39.588995,6.180378 41.235209,-4.739763 C 91.912539,40.328412 86.601592,30.253593 84.419137,29.337744 84.14633,29.223263 83.772136,29.176674 83.314811,29.188916 Z M 23.553601,40.23527 c -2.119917,0.0025 -3.892316,0.942797 -4.824512,2.212785 -1.657237,2.257759 -3.55241,7.47694 17.79788,29.657621 21.35029,22.180681 30.999266,28.964894 32.060059,27.436568 1.060795,-1.528329 1.358936,-3.502017 0.689364,-7.381461 C 52.669179,66.10582 33.097362,45.460424 28.898494,42.217578 27.06149,40.798833 25.202425,40.233362 23.553601,40.23527 Z" />
  </g>
  <g
     inkscape:groupmode="layer"
     id="layer9"
     inkscape:label="bastet">
    <ellipse
       style="display:none;fill:#1a1a1a;stroke-width:0.264583"
       id="path273"
       cx="50"
       cy="55"
       rx="40"
       ry="35" />
    <path
       style="display:none;fill:#ffffff;stroke-width:0.264583"
       d="m 43.80553,52.19134 c 0.0582,-6.672495 -14.678948,-5.757328 -14.678948,-5.757328 0,0 0.03204,5.609225 5.349478,6.115468 5.31744,0.506243 9.32947,-0.35814 9.32947,-0.35814 z"
       id="path329" />
    <path
       style="display:none;fill:#1a1a1a;stroke-width:0.264583"
       d="M 11.809744,45.834347 6.3251952,8.4351237 34.960269,28.792 Z"
       id="path385" />
    <path
       style="display:none;fill:#ffffff;stroke-width:0.264583"
       d="m 41.910695,52.80358 c -3.198032,-7.844737 -14.422921,-4.491087 -14.422921,-4.491087 0,0 1.743273,7.918693 7.698729,7.626564 5.955456,-0.292132 6.724192,-3.135477 6.724192,-3.135477 z"
       id="path387" />
    <path
       style="display:none;fill:#ffffff;stroke-width:0.264583"
       d="m 41.910695,52.80358 c -3.198032,-7.844737 -14.422921,-4.491087 -14.422921,-4.491087 0,0 1.743273,7.918693 7.698729,7.626564 5.955456,-0.292132 6.724192,-3.135477 6.724192,-3.135477 z m 16.17861,0 c 3.198032,-7.844737 14.422921,-4.491087 14.422921,-4.491087 0,0 -1.743273,7.918693 -7.698729,7.626564 -5.955456,-0.292132 -6.724192,-3.135477 -6.724192,-3.135477 z"
       id="path389"
       inkscape:path-effect="#path-effect391"
       inkscape:original-d="m 41.910695,52.80358 c -3.198032,-7.844737 -14.422921,-4.491087 -14.422921,-4.491087 0,0 1.743273,7.918693 7.698729,7.626564 5.955456,-0.292132 6.724192,-3.135477 6.724192,-3.135477 z"
       class="UnoptimicedTransforms" />
    <path
       id="path397"
       style="display:inline;fill:#1a1a1a;stroke-width:0.264583"
       d="M 6.3251953 8.435144 L 11.685075 44.983818 A 40 35 0 0 0 9.9999064 54.999744 A 40 35 0 0 0 50.000049 90.000191 A 40 35 0 0 0 90.000191 54.999744 A 40 35 0 0 0 88.315023 44.983818 L 93.674902 8.435144 L 70.457715 24.940597 A 40 35 0 0 0 50.000049 19.999813 A 40 35 0 0 0 29.542383 24.940597 L 6.3251953 8.435144 z M 32.903935 47.600712 C 36.247197 47.629093 40.211669 48.635987 41.91062 52.803495 C 41.91062 52.803495 41.141927 55.647089 35.186483 55.939221 C 29.231039 56.23135 27.487728 48.312297 27.487728 48.312297 C 27.487728 48.312297 29.953997 47.57567 32.903935 47.600712 z M 67.095646 47.600712 C 70.045584 47.57567 72.51237 48.312297 72.51237 48.312297 C 72.51237 48.312297 70.769059 56.23135 64.813615 55.939221 C 58.858171 55.647089 58.089478 52.803495 58.089478 52.803495 C 59.788428 48.635987 63.752384 47.629093 67.095646 47.600712 z " />
  </g>
  <g
     inkscape:groupmode="layer"
     id="layer3"
     inkscape:label="mid"
     style="display:none">
    <rect
       style="fill:#ffff00;stroke-width:0.275594"
       id="rect439"
       width="50"
       height="100.46542"
       x="50"
       y="0" />
  </g>
</svg>
